<?xml version="1.0" standalone="no"?>
<!DOCTYPE svg PUBLIC "-//W3C//DTD SVG 20010904//EN"
 "http://www.w3.org/TR/2001/REC-SVG-20010904/DTD/svg10.dtd">
<svg version="1.0" xmlns="http://www.w3.org/2000/svg"
 width="100.000000pt" height="100.000000pt" viewBox="0 0 100.000000 100.000000"
 preserveAspectRatio="xMidYMid meet">

<g transform="translate(0.000000,100.000000) scale(0.100000,-0.100000)"
fill="#000000" stroke="none">
<path d="M415 960 c-202 -44 -343 -190 -377 -388 -24 -144 25 -295 132 -402
137 -137 336 -175 518 -99 l53 22 42 -41 43 -42 62 63 62 63 -39 38 -40 39 25
36 c137 207 68 511 -146 646 -91 57 -239 86 -335 65z m213 -201 c70 -35 105
-71 140 -147 20 -45 23 -65 20 -125 -2 -40 -12 -90 -21 -111 l-18 -40 -42 42
c-24 23 -47 42 -52 42 -5 0 -35 -26 -67 -57 l-58 -57 37 -38 c20 -21 33 -41
29 -45 -16 -17 -144 -15 -197 2 -73 24 -150 101 -174 174 -36 110 -4 244 74
313 96 84 220 102 329 47z"/>
</g>
</svg>
